 <svg
                width="118"
                height="119"
                viewBox="0 0 118 119"
                fill="none"
                xmlns="http://www.w3.org/2000/svg"
              >
                <path
                  d="M10.2426 1.75736C7.89949 -0.585786 4.10051 -0.585786 1.75736 1.75736C-0.585786 4.10051 -0.585786 7.89949 1.75736 10.2426L10.2426 1.75736ZM6.07071 6.07071L1.82807 10.3134L2.491 10.9763L3.32456 11.4054L6.07071 6.07071ZM14.8368 13.0731L8.91943 14.0653L14.8368 13.0731ZM18.0396 22.5982L21.599 17.768L18.0396 22.5982ZM21.7036 25.2982L18.1443 30.1284L21.7036 25.2982ZM25.4455 27.9203L28.7716 22.9266L25.4455 27.9203ZM27.3553 29.1924L24.0292 34.186L27.3553 29.1924ZM29.2652 30.4645L25.939 35.4582L29.2652 30.4645ZM33.3586 32.7351L35.8537 27.2785L33.3586 32.7351ZM37.7256 34.732L35.2304 40.1886L37.7256 34.732ZM40.5637 38.2579L46.372 36.7537L40.5637 38.2579ZM41.8727 43.3128L36.0643 44.817L41.8727 43.3128ZM44.1843 47.3652L48.2473 42.9501L44.1843 47.3652ZM47.4985 50.415L43.4355 54.83L47.4985 50.415ZM56.8709 53.7705L55.4858 59.6084L56.8709 53.7705ZM60.1363 56.8691L54.3566 58.48L60.1363 56.8691ZM60.8299 59.3575L66.6096 57.7465L60.8299 59.3575ZM61.5234 61.8459L55.7437 63.4568L61.5234 61.8459ZM64.1676 65.5657L60.9645 70.6392L64.1676 65.5657ZM68.0687 68.0286L71.2717 62.9551L68.0687 68.0286ZM71.3309 71.1303L76.2433 67.6853L71.3309 71.1303ZM72.6425 73.0007L67.7301 76.4457L72.6425 73.0007ZM73.9542 74.871L69.0418 78.316L73.9542 74.871ZM76.9629 78.2263L80.9139 73.7108L76.9629 78.2263ZM80.3569 81.1961L76.4059 85.7116L80.3569 81.1961ZM83.9543 83.9628L80.5993 88.9371L83.9543 83.9628ZM87.7549 86.5261L91.1099 81.5518L87.7549 86.5261ZM90.5257 90.1193L84.9106 92.2339L90.5257 90.1193ZM95.5271 97.8458L93.6395 103.541L95.5271 97.8458ZM100.307 99.4299L102.194 93.7346L100.307 99.4299ZM103.495 102.606L97.8054 104.511L103.495 102.606ZM105.091 107.374L110.781 105.469L105.091 107.374ZM106.667 109.568L105.248 103.738L106.667 109.568ZM107.445 109.379L108.864 115.208L109.025 115.169L109.183 115.121L107.445 109.379ZM108.929 108.929L113.172 104.687L110.631 102.145L107.191 103.187L108.929 108.929ZM109 109V115H115V109H109ZM109 108.9H115V108.747L114.992 108.593L109 108.9ZM108.772 104.45L114.764 104.143L108.772 104.45ZM108.335 97.75L114.309 97.1931L108.335 97.75ZM108.03 88.75L113.969 89.6058L108.03 88.75ZM108.678 84.25L102.74 83.3942L108.678 84.25ZM108.367 79.75L102.593 81.3804L108.367 79.75ZM107.097 75.25L112.871 73.6196L107.097 75.25ZM106.511 70.75L112.51 70.8826L106.511 70.75ZM106.611 66.25L100.612 66.1174L106.611 66.25ZM106.433 61.75L112.403 61.1475L106.433 61.75ZM105.979 57.25L100.009 57.8525L105.979 57.25ZM106.844 52.75L101.446 50.1306L106.844 52.75ZM109.028 48.25L103.629 45.6306L109.028 48.25ZM110.428 43.75L104.483 42.9354L110.428 43.75ZM110.736 41.5L104.792 40.6854L110.736 41.5ZM111.044 39.25L116.989 40.0646L111.044 39.25ZM110.789 34.75L116.609 33.2925L110.789 34.75ZM109.419 21.25L103.426 20.9659L109.419 21.25ZM109.052 16.75L114.924 15.5144L109.052 16.75ZM108.105 12.25L102.234 13.4856L108.105 12.25ZM107.974 9L113.651 10.942L107.974 9ZM108.316 8L102.671 5.96721L102.654 6.01245L102.639 6.05795L108.316 8ZM109 6.1L114.645 8.13279L115 7.14737V6.1H109ZM115 6C115 2.68629 112.314 0 109 0C105.686 0 103 2.68629 103 6H115ZM108.9 109L107.34 114.794L108.106 115H108.9V109ZM104.45 107.802L106.01 102.008L104.45 107.802ZM97.75 106.899L96.9678 100.95L97.75 106.899ZM93.25 107.491L94.0322 113.44L93.25 107.491ZM88.75 108.547L90.6711 114.231L88.75 108.547ZM86.5 109.308L88.4211 114.992L86.5 109.308ZM84.25 110.068L82.3289 104.384L84.25 110.068ZM79.75 111.268L80.8991 117.157L79.75 111.268ZM75.25 112.146L74.1009 106.257L75.25 112.146ZM70.75 112.301L69.9983 118.253L70.75 112.301ZM68.5 112.016L69.2517 106.064L68.5 112.016ZM66.25 111.732L65.4983 117.685L66.25 111.732ZM61.75 110.636L59.7129 116.28L61.75 110.636ZM57.25 109.012L55.2129 114.655L57.25 109.012ZM52.75 108.359L53.1747 114.344L52.75 108.359ZM48.25 108.679L47.8253 102.694L48.25 108.679ZM43.75 109.669L41.6724 104.04L43.75 109.669ZM41.5 110.499L43.5776 116.128L41.5 110.499ZM34.75 110.779L31.611 115.892L34.75 110.779ZM32.5 109.398L29.361 114.511L32.5 109.398ZM30.25 108.017L33.389 102.903L30.25 108.017ZM25.75 107.409L27.7001 113.083L25.75 107.409ZM21.25 108.955L19.2999 103.281L21.25 108.955ZM16.75 110.318L18.2702 116.122L16.75 110.318ZM12.25 111.496L10.7298 105.692L12.25 111.496ZM9 111.314L5.33534 116.065L9 111.314ZM8 110.543L4.21792 115.201L4.27605 115.248L4.33534 115.294L8 110.543ZM6.1 109L9.88208 104.342L8.22917 103H6.1V109ZM6 103C2.68629 103 0 105.686 0 109C0 112.314 2.68629 115 6 115V103ZM6 6L1.75736 10.2426L1.82807 10.3134L6.07071 6.07071L10.3134 1.82807L10.2426 1.75736L6 6ZM6.07071 6.07071L3.32456 11.4054L7.47914 13.544L10.2253 8.20938L12.9714 2.87472L8.81686 0.736045L6.07071 6.07071ZM10.2253 8.20938L7.47914 13.544C8.48246 14.0605 8.94048 14.4531 9.10144 14.6229C9.22553 14.7538 9.00323 14.5651 8.91943 14.0653L14.8368 13.0731L20.7542 12.0808C19.9718 7.41485 16.2783 4.57699 12.9714 2.87472L10.2253 8.20938ZM14.8368 13.0731L8.91943 14.0653L9.37637 16.7904L15.2938 15.7981L21.2111 14.8059L20.7542 12.0808L14.8368 13.0731ZM15.2938 15.7981L9.37637 16.7904L9.83331 19.5154L15.7507 18.5232L21.6681 17.5309L21.2111 14.8059L15.2938 15.7981ZM15.7507 18.5232L9.83331 19.5154C10.3371 22.5198 11.7455 25.4131 14.4803 27.4284L18.0396 22.5982L21.599 17.768C21.6367 17.7957 21.6784 17.8331 21.7169 17.8769C21.755 17.9203 21.7759 17.954 21.7826 17.9661C21.7961 17.9901 21.7262 17.8775 21.6681 17.5309L15.7507 18.5232ZM18.0396 22.5982L14.4803 27.4284L16.3123 28.7784L19.8716 23.9482L23.431 19.118L21.599 17.768L18.0396 22.5982ZM19.8716 23.9482L16.3123 28.7784L18.1443 30.1284L21.7036 25.2982L25.263 20.4679L23.431 19.118L19.8716 23.9482ZM21.7036 25.2982L18.1443 30.1284C19.4427 31.0852 20.7677 32.0137 22.1193 32.9139L25.4455 27.9203L28.7716 22.9266C27.5768 22.1307 26.4072 21.3111 25.263 20.4679L21.7036 25.2982ZM25.4455 27.9203L22.1193 32.9139L24.0292 34.186L27.3553 29.1924L30.6815 24.1987L28.7716 22.9266L25.4455 27.9203ZM27.3553 29.1924L24.0292 34.186L25.939 35.4582L29.2652 30.4645L32.5914 25.4708L30.6815 24.1987L27.3553 29.1924ZM29.2652 30.4645L25.939 35.4582C27.4885 36.4902 29.1322 37.4 30.8634 38.1917L33.3586 32.7351L35.8537 27.2785C34.6736 26.7389 33.5884 26.135 32.5914 25.4708L29.2652 30.4645ZM33.3586 32.7351L30.8634 38.1917L33.0469 39.1901L35.5421 33.7336L38.0373 28.277L35.8537 27.2785L33.3586 32.7351ZM35.5421 33.7336L33.0469 39.1901L35.2304 40.1886L37.7256 34.732L40.2208 29.2754L38.0373 28.277L35.5421 33.7336ZM37.7256 34.732L35.2304 40.1886C35.2081 40.1784 35.1492 40.1482 35.0716 40.0888C34.993 40.0285 34.9174 39.9551 34.8529 39.8749C34.7157 39.7045 34.718 39.6182 34.7553 39.7621L40.5637 38.2579L46.372 36.7537C45.5279 33.4941 43.4768 30.7644 40.2208 29.2754L37.7256 34.732ZM40.5637 38.2579L34.7553 39.7621L35.4098 42.2896L41.2182 40.7854L47.0266 39.2812L46.372 36.7537L40.5637 38.2579ZM41.2182 40.7854L35.4098 42.2896L36.0643 44.817L41.8727 43.3128L47.6811 41.8086L47.0266 39.2812L41.2182 40.7854ZM41.8727 43.3128L36.0643 44.817C36.7431 47.4379 38.0382 49.8632 40.1214 51.7802L44.1843 47.3652L48.2473 42.9501C48.121 42.8339 47.8751 42.5577 47.6811 41.8086L41.8727 43.3128ZM44.1843 47.3652L40.1214 51.7802L41.7785 53.3051L45.8414 48.8901L49.9043 44.4751L48.2473 42.9501L44.1843 47.3652ZM45.8414 48.8901L41.7785 53.3051L43.4355 54.83L47.4985 50.415L51.5614 46L49.9043 44.4751L45.8414 48.8901ZM47.4985 50.415L43.4355 54.83C45.4182 56.6546 47.8026 57.7855 50.3422 58.388L51.7273 52.5501L53.1124 46.7122C52.223 46.5011 51.7882 46.2086 51.5614 46L47.4985 50.415ZM51.7273 52.5501L50.3422 58.388L52.914 58.9982L54.2991 53.1603L55.6842 47.3223L53.1124 46.7122L51.7273 52.5501ZM54.2991 53.1603L52.914 58.9982L55.4858 59.6084L56.8709 53.7705L58.256 47.9325L55.6842 47.3223L54.2991 53.1603ZM56.8709 53.7705L55.4858 59.6084C55.4941 59.6104 55.1914 59.533 54.8431 59.2025C54.4889 58.8664 54.3732 58.5394 54.3566 58.48L60.1363 56.8691L65.916 55.2581C65.437 53.5397 64.5459 51.8669 63.1032 50.4979C61.6665 49.1345 59.9622 48.3373 58.256 47.9325L56.8709 53.7705ZM60.1363 56.8691L54.3566 58.48L55.0502 60.9684L60.8299 59.3575L66.6096 57.7465L65.916 55.2581L60.1363 56.8691ZM60.8299 59.3575L55.0502 60.9684L55.7437 63.4568L61.5234 61.8459L67.3031 60.235L66.6096 57.7465L60.8299 59.3575ZM61.5234 61.8459L55.7437 63.4568C56.5542 66.3645 58.252 68.9267 60.9645 70.6392L64.1676 65.5657L67.3706 60.4922C67.3654 60.4889 67.3748 60.4945 67.391 60.5097C67.4073 60.5251 67.418 60.5386 67.4217 60.5439C67.4324 60.559 67.3723 60.4832 67.3031 60.235L61.5234 61.8459ZM64.1676 65.5657L60.9645 70.6392L62.9151 71.8707L66.1181 66.7971L69.3211 61.7236L67.3706 60.4922L64.1676 65.5657ZM66.1181 66.7971L62.9151 71.8707L64.8656 73.1021L68.0687 68.0286L71.2717 62.9551L69.3211 61.7236L66.1181 66.7971ZM68.0687 68.0286L64.8656 73.1021C65.5007 73.5031 66.0049 73.9857 66.4185 74.5754L71.3309 71.1303L76.2433 67.6853C74.9079 65.7812 73.2373 64.196 71.2717 62.9551L68.0687 68.0286ZM71.3309 71.1303L66.4185 74.5754L67.7301 76.4457L72.6425 73.0007L77.5549 69.5556L76.2433 67.6853L71.3309 71.1303ZM72.6425 73.0007L67.7301 76.4457L69.0418 78.316L73.9542 74.871L78.8666 71.4259L77.5549 69.5556L72.6425 73.0007ZM73.9542 74.871L69.0418 78.316C70.1889 79.9518 71.5135 81.4306 73.0118 82.7417L76.9629 78.2263L80.9139 73.7108C80.1495 73.042 79.4683 72.284 78.8666 71.4259L73.9542 74.871ZM76.9629 78.2263L73.0118 82.7417L74.7088 84.2266L78.6599 79.7112L82.611 75.1958L80.9139 73.7108L76.9629 78.2263ZM78.6599 79.7112L74.7088 84.2266L76.4059 85.7116L80.3569 81.1961L84.308 76.6807L82.611 75.1958L78.6599 79.7112ZM80.3569 81.1961L76.4059 85.7116C77.7292 86.8695 79.1277 87.9446 80.5993 88.9371L83.9543 83.9628L87.3093 78.9884C86.2471 78.272 85.2474 77.5027 84.308 76.6807L80.3569 81.1961ZM83.9543 83.9628L80.5993 88.9371L82.4996 90.2188L85.8546 85.2444L89.2096 80.2701L87.3093 78.9884L83.9543 83.9628ZM85.8546 85.2444L82.4996 90.2188L84.3999 91.5005L87.7549 86.5261L91.1099 81.5518L89.2096 80.2701L85.8546 85.2444ZM87.7549 86.5261L84.3999 91.5005C84.5538 91.6042 84.733 91.7621 84.9106 92.2339L90.5257 90.1193L96.1407 88.0047C95.1577 85.3945 93.4897 83.1569 91.1099 81.5518L87.7549 86.5261ZM90.5257 90.1193L84.9106 92.2339L85.7811 94.5453L91.3962 92.4308L97.0112 90.3162L96.1407 88.0047L90.5257 90.1193ZM91.3962 92.4308L85.7811 94.5453L86.6516 96.8568L92.2666 94.7423L97.8817 92.6277L97.0112 90.3162L91.3962 92.4308ZM92.2666 94.7423L86.6516 96.8568C87.8845 100.131 90.3656 102.456 93.6395 103.541L95.5271 97.8458L97.4146 92.1505C97.3577 92.1316 97.4837 92.1661 97.6538 92.328C97.7313 92.4018 97.7916 92.4776 97.8337 92.5427C97.8748 92.6062 97.8866 92.6406 97.8817 92.6277L92.2666 94.7423ZM95.5271 97.8458L93.6395 103.541L96.0294 104.333L97.917 98.6379L99.8045 92.9425L97.4146 92.1505L95.5271 97.8458ZM97.917 98.6379L96.0294 104.333L98.4194 105.125L100.307 99.4299L102.194 93.7346L99.8045 92.9425L97.917 98.6379ZM100.307 99.4299L98.4194 105.125C98.4385 105.132 98.2676 105.073 98.0643 104.871C97.8608 104.668 97.8003 104.496 97.8054 104.511L103.495 102.606L109.185 100.701C108.052 97.3168 105.578 94.8559 102.194 93.7346L100.307 99.4299ZM103.495 102.606L97.8054 104.511L98.6035 106.895L104.293 104.99L109.983 103.085L109.185 100.701L103.495 102.606ZM104.293 104.99L98.6035 106.895L99.4016 109.278L105.091 107.374L110.781 105.469L109.983 103.085L104.293 104.99ZM105.091 107.374L99.4016 109.278C99.7242 110.242 100.216 111.507 101.011 112.614C101.621 113.464 104.058 116.378 108.086 115.398L106.667 109.568L105.248 103.738C106.822 103.355 108.268 103.721 109.287 104.312C110.16 104.818 110.617 105.418 110.758 105.614C111.027 105.99 110.99 106.094 110.781 105.469L105.091 107.374ZM106.667 109.568L108.086 115.398L108.864 115.208L107.445 109.379L106.025 103.549L105.248 103.738L106.667 109.568ZM107.445 109.379L109.183 115.121L110.668 114.672L108.929 108.929L107.191 103.187L105.706 103.636L107.445 109.379ZM108.929 108.929L104.687 113.172L104.757 113.243L109 109L113.243 104.757L113.172 104.687L108.929 108.929ZM109 109H115V108.9H109H103V109H109ZM109 108.9L114.992 108.593L114.764 104.143L108.772 104.45L102.78 104.757L103.008 109.207L109 108.9ZM108.772 104.45L114.764 104.143C114.612 101.157 114.461 98.822 114.309 97.1931L108.335 97.75L102.361 98.3069C102.489 99.678 102.629 101.81 102.78 104.757L108.772 104.45ZM108.335 97.75L114.309 97.1931L114.099 94.9431L108.125 95.5L102.151 96.0569L102.361 98.3069L108.335 97.75ZM108.125 95.5L114.099 94.9431L113.89 92.6931L107.915 93.25L101.941 93.8069L102.151 96.0569L108.125 95.5ZM107.915 93.25L113.89 92.6931C113.794 91.6666 113.819 90.6407 113.969 89.6058L108.03 88.75L102.091 87.8942C101.808 89.8593 101.757 91.8334 101.941 93.8069L107.915 93.25ZM108.03 88.75L113.969 89.6058L114.293 87.3558L108.354 86.5L102.415 85.6442L102.091 87.8942L108.03 88.75ZM108.354 86.5L114.293 87.3558L114.617 85.1058L108.678 84.25L102.74 83.3942L102.415 85.6442L108.354 86.5ZM108.678 84.25L114.617 85.1058C114.956 82.7507 114.787 80.4041 114.142 78.1196L108.367 79.75L102.593 81.3804C102.795 82.0959 102.833 82.7493 102.74 83.3942L108.678 84.25ZM108.367 79.75L114.142 78.1196L113.506 75.8696L107.732 77.5L101.958 79.1304L102.593 81.3804L108.367 79.75ZM107.732 77.5L113.506 75.8696L112.871 73.6196L107.097 75.25L101.322 76.8804L101.958 79.1304L107.732 77.5ZM107.097 75.25L112.871 73.6196C112.603 72.6705 112.49 71.7642 112.51 70.8826L106.511 70.75L100.513 70.6174C100.466 72.7358 100.743 74.8295 101.322 76.8804L107.097 75.25ZM106.511 70.75L112.51 70.8826L112.559 68.6326L106.561 68.5L100.562 68.3674L100.513 70.6174L106.511 70.75ZM106.561 68.5L112.559 68.6326L112.609 66.3826L106.611 66.25L100.612 66.1174L100.562 68.3674L106.561 68.5ZM106.611 66.25L112.609 66.3826C112.648 64.636 112.579 62.8906 112.403 61.1475L106.433 61.75L100.464 62.3525C100.59 63.6094 100.64 64.864 100.612 66.1174L106.611 66.25ZM106.433 61.75L112.403 61.1475L112.176 58.8975L106.206 59.5L100.237 60.1025L100.464 62.3525L106.433 61.75ZM106.206 59.5L112.176 58.8975L111.949 56.6475L105.979 57.25L100.009 57.8525L100.237 60.1025L106.206 59.5ZM105.979 57.25L111.949 56.6475C111.921 56.3686 111.946 55.9784 112.242 55.3694L106.844 52.75L101.446 50.1306C100.286 52.5216 99.7349 55.1314 100.009 57.8525L105.979 57.25ZM106.844 52.75L112.242 55.3694L113.334 53.1194L107.936 50.5L102.538 47.8806L101.446 50.1306L106.844 52.75ZM107.936 50.5L113.334 53.1194L114.426 50.8694L109.028 48.25L103.629 45.6306L102.538 47.8806L107.936 50.5ZM109.028 48.25L114.426 50.8694C115.402 48.8576 116.072 46.7513 116.372 44.5646L110.428 43.75L104.483 42.9354C104.372 43.7487 104.109 44.6424 103.629 45.6306L109.028 48.25ZM110.428 43.75L116.372 44.5646L116.68 42.3146L110.736 41.5L104.792 40.6854L104.483 42.9354L110.428 43.75ZM110.736 41.5L116.68 42.3146L116.989 40.0646L111.044 39.25L105.1 38.4354L104.792 40.6854L110.736 41.5ZM111.044 39.25L116.989 40.0646C117.3 37.7899 117.167 35.5188 116.609 33.2925L110.789 34.75L104.969 36.2075C105.163 36.9812 105.199 37.7101 105.1 38.4354L111.044 39.25ZM110.789 34.75L116.609 33.2925L116.046 31.0425L110.226 32.5L104.405 33.9575L104.969 36.2075L110.789 34.75ZM110.226 32.5L116.046 31.0425L115.483 28.7925L109.662 30.25L103.842 31.7075L104.405 33.9575L110.226 32.5ZM109.662 30.25L115.483 28.7925C115.245 27.8444 115.156 26.9309 115.199 26.0341L109.206 25.75L103.212 25.4659C103.113 27.5691 103.328 29.6556 103.842 31.7075L109.662 30.25ZM109.206 25.75L115.199 26.0341L115.306 23.7841L109.312 23.5L103.319 23.2159L103.212 25.4659L109.206 25.75ZM109.312 23.5L115.306 23.7841L115.412 21.5341L109.419 21.25L103.426 20.9659L103.319 23.2159L109.312 23.5ZM109.419 21.25L115.412 21.5341C115.508 19.5139 115.342 17.5033 114.924 15.5144L109.052 16.75L103.181 17.9856C103.393 18.9967 103.472 19.9861 103.426 20.9659L109.419 21.25ZM109.052 16.75L114.924 15.5144L114.45 13.2644L108.579 14.5L102.707 15.7356L103.181 17.9856L109.052 16.75ZM108.579 14.5L114.45 13.2644L113.977 11.0144L108.105 12.25L102.234 13.4856L102.707 15.7356L108.579 14.5ZM108.105 12.25L113.977 11.0144C113.921 10.7521 113.885 10.5409 113.862 10.3762C113.839 10.2098 113.832 10.111 113.831 10.0701C113.829 10.0259 113.834 10.0787 113.821 10.2064C113.808 10.3296 113.77 10.5933 113.651 10.942L107.974 9L102.297 7.05795C101.497 9.39566 101.901 11.9028 102.234 13.4856L108.105 12.25ZM107.974 9L113.651 10.942L113.993 9.94205L108.316 8L102.639 6.05795L102.297 7.05795L107.974 9ZM108.316 8L113.961 10.0328L114.645 8.13279L109 6.1L103.355 4.06721L102.671 5.96721L108.316 8ZM109 6.1H115V6H109H103V6.1H109ZM109 109V103H108.9V109V115H109V109ZM108.9 109L110.46 103.206L106.01 102.008L104.45 107.802L102.89 113.595L107.34 114.794L108.9 109ZM104.45 107.802L106.01 102.008C102.904 101.172 99.7056 100.59 96.9678 100.95L97.75 106.899L98.5322 112.848C98.53 112.848 98.6261 112.836 98.8461 112.842C99.0625 112.848 99.3598 112.871 99.7491 112.923C100.537 113.029 101.573 113.241 102.89 113.595L104.45 107.802ZM97.75 106.899L96.9678 100.95L94.7178 101.246L95.5 107.195L96.2822 113.144L98.5322 112.848L97.75 106.899ZM95.5 107.195L94.7178 101.246L92.4678 101.542L93.25 107.491L94.0322 113.44L96.2822 113.144L95.5 107.195ZM93.25 107.491L92.4678 101.542C90.5629 101.793 88.6818 102.237 86.8289 102.863L88.75 108.547L90.6711 114.231C91.8182 113.844 92.9371 113.584 94.0322 113.44L93.25 107.491ZM88.75 108.547L86.8289 102.863L84.5789 103.624L86.5 109.308L88.4211 114.992L90.6711 114.231L88.75 108.547ZM86.5 109.308L84.5789 103.624L82.3289 104.384L84.25 110.068L86.1711 115.752L88.4211 114.992L86.5 109.308ZM84.25 110.068L82.3289 104.384C81.0723 104.809 79.8301 105.139 78.6009 105.379L79.75 111.268L80.8991 117.157C82.6699 116.811 84.4277 116.342 86.1711 115.752L84.25 110.068ZM79.75 111.268L78.6009 105.379L76.3509 105.818L77.5 111.707L78.6491 117.596L80.8991 117.157L79.75 111.268ZM77.5 111.707L76.3509 105.818L74.1009 106.257L75.25 112.146L76.3991 118.035L78.6491 117.596L77.5 111.707ZM75.25 112.146L74.1009 106.257C73.2202 106.429 72.3618 106.456 71.5017 106.348L70.75 112.301L69.9983 118.253C72.1382 118.524 74.2798 118.448 76.3991 118.035L75.25 112.146ZM70.75 112.301L71.5017 106.348L69.2517 106.064L68.5 112.016L67.7483 117.969L69.9983 118.253L70.75 112.301ZM68.5 112.016L69.2517 106.064L67.0017 105.78L66.25 111.732L65.4983 117.685L67.7483 117.969L68.5 112.016ZM66.25 111.732L67.0017 105.78C65.9635 105.649 64.894 105.392 63.7871 104.992L61.75 110.636L59.7129 116.28C61.606 116.963 63.5365 117.437 65.4983 117.685L66.25 111.732ZM61.75 110.636L63.7871 104.992L61.5371 104.18L59.5 109.824L57.4629 115.468L59.7129 116.28L61.75 110.636ZM59.5 109.824L61.5371 104.18L59.2871 103.368L57.25 109.012L55.2129 114.655L57.4629 115.468L59.5 109.824ZM57.25 109.012L59.2871 103.368C57.0478 102.56 54.7107 102.205 52.3253 102.374L52.75 108.359L53.1747 114.344C53.7893 114.301 54.4522 114.381 55.2129 114.655L57.25 109.012ZM52.75 108.359L52.3253 102.374L50.0753 102.534L50.5 108.519L50.9247 114.504L53.1747 114.344L52.75 108.359ZM50.5 108.519L50.0753 102.534L47.8253 102.694L48.25 108.679L48.6747 114.664L50.9247 114.504L50.5 108.519ZM48.25 108.679L47.8253 102.694C45.7256 102.843 43.6702 103.303 41.6724 104.04L43.75 109.669L45.8276 115.298C46.8298 114.928 47.7744 114.727 48.6747 114.664L48.25 108.679ZM43.75 109.669L41.6724 104.04L39.4224 104.87L41.5 110.499L43.5776 116.128L45.8276 115.298L43.75 109.669ZM41.5 110.499L39.4224 104.87L37.1724 105.701L39.25 111.33L41.3276 116.959L43.5776 116.128L41.5 110.499ZM39.25 111.33L37.1724 105.701C37.2061 105.688 37.281 105.665 37.3905 105.652C37.5014 105.638 37.6178 105.638 37.7289 105.652C37.9628 105.68 38.0253 105.749 37.889 105.666L34.75 110.779L31.611 115.892C34.4981 117.665 37.912 118.219 41.3276 116.959L39.25 111.33ZM34.75 110.779L37.889 105.666L35.639 104.284L32.5 109.398L29.361 114.511L31.611 115.892L34.75 110.779ZM32.5 109.398L35.639 104.284L33.389 102.903L30.25 108.017L27.111 113.13L29.361 114.511L32.5 109.398ZM30.25 108.017L33.389 102.903C30.5512 101.161 27.1947 100.568 23.7999 101.734L25.75 107.409L27.7001 113.083C27.6672 113.094 27.5973 113.114 27.4973 113.124C27.3962 113.135 27.2926 113.133 27.1967 113.12C26.9947 113.093 26.9582 113.036 27.111 113.13L30.25 108.017ZM25.75 107.409L23.7999 101.734L21.5499 102.508L23.5 108.182L25.4501 113.856L27.7001 113.083L25.75 107.409ZM23.5 108.182L21.5499 102.508L19.2999 103.281L21.25 108.955L23.2001 114.629L25.4501 113.856L23.5 108.182ZM21.25 108.955L19.2999 103.281C17.9383 103.749 16.5817 104.159 15.2298 104.513L16.75 110.318L18.2702 116.122C19.9183 115.69 21.5617 115.192 23.2001 114.629L21.25 108.955ZM16.75 110.318L15.2298 104.513L12.9798 105.103L14.5 110.907L16.0202 116.711L18.2702 116.122L16.75 110.318ZM14.5 110.907L12.9798 105.103L10.7298 105.692L12.25 111.496L13.7702 117.3L16.0202 116.711L14.5 110.907ZM12.25 111.496L10.7298 105.692C10.348 105.792 10.3604 105.739 10.6481 105.755C10.9686 105.773 11.7962 105.893 12.6647 106.563L9 111.314L5.33534 116.065C8.34022 118.383 11.8963 117.791 13.7702 117.3L12.25 111.496ZM9 111.314L12.6647 106.563L11.6647 105.792L8 110.543L4.33534 115.294L5.33534 116.065L9 111.314ZM8 110.543L11.7821 105.885L9.88208 104.342L6.1 109L2.31792 113.658L4.21792 115.201L8 110.543ZM6.1 109V103H6V109V115H6.1V109Z"
                  fill="#FFF200"
                />
              </svg>