<svg width="541" height="101" viewBox="0 0 541 101" fill="none" xmlns="http://www.w3.org/2000/svg">
<path d="M52 86.5C57.6667 75.1667 70 48.8 74 34" stroke="#E3E7FF"/>
<path d="M70.5 77.5C84.5 85.1667 117.5 97.8 137.5 87" stroke="#E3E7FF"/>
<path d="M148.5 59.5C171.5 52.3333 221.5 34.1 237.5 18.5" stroke="#E3E7FF"/>
<path d="M212 51.5C221.333 65.6667 243.5 93 257.5 89" stroke="#E3E7FF"/>
<path d="M270 59.5C286.5 53.5 313.8 31 321 19" stroke="#E3E7FF"/>
<path d="M319.5 89C325.833 90 340.5 91.2 348.5 88" stroke="#E3E7FF"/>
<path d="M325.5 59.5L324.5 50" stroke="#E3E7FF"/>
<path d="M351 18.5C354 39 361.3 81.4 366.5 87" stroke="#E3E7FF"/>
<path d="M377 60C389.333 54.6667 416.9 38.9 428.5 18.5" stroke="#E3E7FF"/>
<path d="M427.5 87.5L432.5 56" stroke="#E3E7FF"/>
<path d="M468.5 88.5C472 89.3333 479.8 90.5 483 88.5" stroke="#E3E7FF"/>
<mask id="path-12-inside-1_0_1" fill="white">
<path d="M19.5455 10.3341C19.476 11.2481 16.412 53.0428 18.9851 74.4445C19.1725 76.0032 20.725 76.3751 21.4139 74.9644C22.1288 73.5003 22.9918 71.3902 23.9099 68.3971C26.8723 58.7335 29.5771 46.5637 31.936 35.9064C31.9728 35.6672 32.0243 35.4317 32.0906 35.1999C35.8111 18.397 38.8655 4.82146 46.0967 4.82146C51.9111 4.82146 54.8551 15.4125 56.1946 29.529C58.34 52.1352 58.8442 86.0133 58.8479 86.1568C58.881 89.2223 56.4264 91.7357 53.361 91.7725L51.1419 91.7983C48.0765 91.8351 45.5631 89.3768 45.5263 86.3151V86.293C45.5263 86.1752 45.1767 62.7336 44.161 42.2986C41.8573 52.6467 39.2519 63.9443 36.2784 73.2069C32.3923 85.2994 27.4207 94.4074 20.6531 95.585C12.9583 96.9208 8.78514 89.7779 6.8237 78.4914C2.81986 55.4619 6.15394 10.3783 6.22386 9.39202C6.23858 9.21906 6.25698 9.04978 6.28642 8.8805C6.73538 6.07634 9.25618 4.02658 12.145 4.21794L14.3861 4.37618C17.4515 4.5933 19.7626 7.25394 19.5455 10.3157V10.3341ZM476.414 88.1256C476.414 87.776 476.447 87.4375 476.509 87.1063C477.198 80.6405 485.415 8.77378 510.583 10.1685C516.541 10.4997 521.24 14.1282 524.879 19.8359C528.401 25.3595 530.955 32.9698 532.696 41.1909L532.736 41.408C533.494 45.0255 534.116 48.8563 534.606 52.7277C535.143 56.9634 535.504 61.1328 535.71 65.041C535.912 68.916 535.916 72.0551 535.787 74.8445C535.658 77.6744 535.393 80.0848 535.062 82.4989C534.687 85.2479 534.076 87.5626 533.24 89.2995C531.798 92.2914 529.619 94.0504 526.668 94.3191C521.836 94.757 519.429 92.4791 518.244 88.3243C517.674 86.3371 517.622 83.9967 517.564 81.2624C517.541 80.1179 517.512 78.8594 517.409 77.2476C517.324 75.9632 517.185 74.6384 516.938 73.3467C516.46 70.8407 515.93 69.2619 514.77 68.6253C512.632 67.4514 508.467 67.0355 500.963 67.1496C498.233 67.1791 495.94 65.236 495.447 62.6416H495.436L495.02 60.4594C494.442 57.4418 496.418 54.5272 499.436 53.9531L499.808 53.8943V53.8869C510.314 52.5768 517.037 53.6587 521.645 56.5586C521.564 55.8447 521.479 55.1271 521.391 54.4168C520.953 50.9392 520.371 47.4064 519.643 43.9583C518.237 37.3343 516.357 31.3874 513.957 27.3946C512.54 25.032 511.138 23.56 509.85 23.4864C496.904 22.7688 490.343 82.9589 489.768 88.4752C489.699 91.4928 487.229 93.9143 484.197 93.9143C483.862 93.9143 483.531 93.8848 483.211 93.8296L481.444 93.653C478.574 93.3696 476.428 90.9519 476.432 88.1256H476.414ZM434.289 48.2823C439.459 46.9759 449.141 45.4119 461.241 47.561C461.403 38.5965 461.591 30.2466 461.708 24.9179L461.72 24.3365C461.771 22.0843 461.804 20.5903 461.804 19.2066C461.804 16.1264 464.299 13.6351 467.376 13.6351H469.602C472.682 13.6351 475.177 16.1264 475.177 19.2066C475.177 19.409 475.163 19.6114 475.144 19.8101C475.104 21.628 475.096 23.4754 475.026 25.2933C474.669 41.3234 473.705 84.6517 474.257 86.3077C475.218 89.2186 473.639 92.3539 470.732 93.3181H470.725L470.732 93.3365L468.623 94.032C465.701 94.9962 462.555 93.4064 461.594 90.4845C461.392 89.8736 461.304 89.248 461.315 88.6371C460.888 84.2027 460.869 73.5565 461.017 61.8283L461.028 61.1328C445.413 57.7546 435.271 61.8799 435.209 61.9056C434.822 62.0639 434.432 62.1779 434.039 62.2442C433.84 74.5906 433.755 84.9608 434.02 85.7557C434.981 88.6629 433.402 91.8019 430.495 92.7624L430.487 92.7661L430.495 92.7845L428.39 93.48C425.468 94.4405 422.321 92.8544 421.357 89.9325C421.159 89.3216 421.067 88.696 421.081 88.0851C420.651 83.6581 420.636 73.0082 420.783 61.2763C420.953 47.6493 421.291 32.4914 421.471 24.3623L421.486 23.7882C421.534 21.536 421.567 20.1119 421.567 18.6509C421.567 15.5744 424.062 13.0794 427.139 13.0794H429.369C432.445 13.0794 434.94 15.5744 434.94 18.6509C434.94 18.857 434.929 19.0594 434.907 19.2581L434.789 24.6714C434.668 30.2061 434.469 39.0344 434.289 48.2823ZM359.092 87.0106C359.092 86.661 359.121 86.3187 359.184 85.9912C359.872 79.5255 368.086 7.65506 393.257 9.05346C399.215 9.38466 403.914 13.0131 407.554 18.7208C411.075 24.2445 413.629 31.8547 415.37 40.0759L415.41 40.293C416.172 43.9104 416.79 47.7376 417.28 51.6127C417.817 55.8483 418.181 60.0178 418.384 63.9259C418.579 67.6648 418.634 71.2896 418.564 74.6127C418.491 78.0571 418.277 81.1189 417.939 83.5956C417.563 86.3408 416.952 88.6592 416.113 90.3962C414.671 93.388 412.492 95.1471 409.544 95.412C404.709 95.8536 402.306 93.572 401.117 89.421C400.547 87.4301 400.499 85.0933 400.44 82.3554C400.414 81.2146 400.389 79.9523 400.286 78.3442C400.201 77.0599 400.061 75.7351 399.811 74.4397C399.274 71.6392 398.144 68.9381 395.638 67.4109C392.576 65.5451 387.354 64.8827 378.644 66.5498C377.473 66.7743 376.321 66.6123 375.309 66.156C373.595 76.6514 372.645 85.4135 372.443 87.3602C372.373 90.3778 369.907 92.7992 366.871 92.7992C366.536 92.7992 366.205 92.7698 365.885 92.7109L364.119 92.5379C361.248 92.2546 359.103 89.8368 359.106 87.0106H359.092ZM377.716 53.1546C389.603 51.1269 397.585 52.6909 403.009 56.1317C403.531 56.4629 404.028 56.8088 404.503 57.1695C404.374 55.8778 404.227 54.5861 404.065 53.3018C403.631 49.8499 403.049 46.3208 402.313 42.8432C400.911 36.2192 399.031 30.2723 396.635 26.2795C395.218 23.9207 393.812 22.445 392.525 22.3714C385.97 22.0071 381.05 37.2791 377.716 53.1546ZM330.991 53.2576C334.082 53.633 337.803 54.564 341.461 56.6395C346.804 59.6719 351.875 65.0336 354.385 74.4139C355.404 78.2227 356.001 82.6903 356.001 87.9232C356.001 90.9997 353.505 93.4947 350.429 93.4947H348.199C345.122 93.4947 342.627 90.9997 342.627 87.9232C342.627 83.993 342.212 80.7693 341.505 78.1234C340.059 72.7175 337.387 69.7919 334.656 68.2426C331.9 66.6786 328.945 66.3879 327.135 66.3879C326.281 66.3879 326.321 66.3106 326.314 66.3106L326.181 66.3474L326.17 89.6823C326.17 92.744 323.686 95.2317 320.621 95.2317V95.2538H318.391C315.314 95.2538 312.819 92.7587 312.819 89.6823C312.819 89.513 312.827 89.3474 312.841 89.1818L312.875 17.2599C312.875 14.1981 315.359 11.7104 318.424 11.7104V11.6883H320.654C323.731 11.6883 326.226 14.1834 326.226 17.2599C326.226 17.4291 326.218 17.5947 326.204 17.7603L326.196 32.3479C331.819 22.721 340.199 12.4538 350.62 11.7104C353.686 11.4933 356.346 13.8007 356.564 16.8661L356.718 19.0851C356.935 22.1506 354.628 24.8112 351.562 25.0283C341.314 25.7607 332.338 49.5261 330.991 53.2576ZM250.867 87.4448C250.867 87.0952 250.9 86.753 250.959 86.4255C251.647 79.9597 259.861 8.0893 285.032 9.4877C290.99 9.8189 295.693 13.4474 299.332 19.1551C302.854 24.6787 305.408 32.289 307.148 40.5101L307.189 40.7272C307.947 44.3447 308.569 48.1755 309.058 52.0469C309.592 56.2863 309.956 60.452 310.162 64.3602C310.357 68.0991 310.413 71.7239 310.343 75.0469C310.265 78.4914 310.052 81.5531 309.713 84.0298C309.338 86.7751 308.727 89.0898 307.892 90.8304C306.449 93.8223 304.271 95.5813 301.319 95.8463C296.488 96.2879 294.081 94.0063 292.896 89.8552C292.325 87.8643 292.274 85.5275 292.215 82.7896C292.193 81.6488 292.164 80.3866 292.061 78.7784C291.976 77.4941 291.836 76.1693 291.589 74.8739C291.052 72.0735 289.922 69.3723 287.416 67.8451C284.355 65.9794 279.133 65.317 270.422 66.984C269.252 67.2085 268.096 67.0466 267.088 66.5903C265.373 77.0856 264.424 85.8477 264.221 87.7944C264.148 90.812 261.682 93.2335 258.65 93.2335C258.311 93.2335 257.984 93.204 257.66 93.1451L255.893 92.9722C253.023 92.6888 250.881 90.2711 250.885 87.4448H250.867ZM269.491 53.5888C281.378 51.5611 289.363 53.1288 294.787 56.5659C295.31 56.8971 295.807 57.2431 296.278 57.6037C296.149 56.312 296.005 55.0203 295.844 53.736C295.402 50.2584 294.824 46.7256 294.096 43.2775C292.69 36.6535 290.806 30.7066 288.41 26.7138C286.993 24.3512 285.591 22.8792 284.303 22.8056C277.745 22.4413 272.825 37.7133 269.491 53.5888ZM236.853 24.7008L236.596 24.6419C235.723 24.4653 231.572 23.6815 226.505 23.6815C219.042 23.6815 209.433 25.573 209.433 35.3103C209.433 38.5891 209.301 42.1072 209.128 45.6511C210.096 45.0475 211.259 44.7347 212.48 44.8267L212.503 44.8304C214.552 44.9923 216.779 44.9666 219.13 44.9371H219.255C225.585 44.8562 232.636 44.7752 238.723 47.1267C245.84 49.8794 251.006 55.3663 251.33 66.3179C251.492 71.8048 251.124 76.2392 250.05 79.8861C248.791 84.1659 246.624 87.3565 243.33 89.7522C240.334 91.9344 236.647 93.2077 232.047 93.8591C228.04 94.4258 223.219 94.5251 217.393 94.3779C207.196 94.1167 201.378 89.6749 198.136 82.5541C198.059 82.3848 197.992 82.2155 197.933 82.0426C195.35 76.0037 194.909 68.3309 195.122 59.8743C195.214 56.3819 195.383 53.1803 195.556 49.9162L195.567 49.7211C195.81 45.1175 196.06 40.3813 196.06 35.3103C196.06 14.3159 213.342 10.3194 226.487 10.3194C233.552 10.3194 239.4 11.5816 239.576 11.6221C242.579 12.2698 244.489 15.2322 243.841 18.2351L243.385 20.3915C242.752 23.3723 239.838 25.2859 236.857 24.6935L236.853 24.7008ZM208.554 57.048C208.506 58.152 208.466 59.2045 208.444 60.1871C208.274 66.8221 208.528 72.6402 210.195 76.5152C211.369 79.2495 213.625 80.9533 217.706 81.0563C222.711 81.1851 226.766 81.1226 229.942 80.7031C232.514 80.3645 234.351 79.8272 235.495 78.9955L235.506 78.9882L235.495 78.9735C236.334 78.3626 236.927 77.3616 237.332 75.8859C237.935 73.689 238.126 70.6567 238.012 66.6823C237.887 62.4797 235.992 60.4483 233.387 59.4952C229.637 58.1299 224.216 58.1962 219.358 58.2551C217.989 58.2735 216.657 58.2919 215.351 58.2808H215.336C213.831 58.2661 212.499 58.2293 211.457 58.1447C210.365 58.06 209.371 57.6626 208.554 57.048ZM131.395 87.7503C131.395 87.4007 131.428 87.0584 131.487 86.7309C132.179 80.2651 140.393 8.39474 165.561 9.79314C171.518 10.1243 176.221 13.7528 179.861 19.4605C183.383 24.9842 185.937 32.5944 187.677 40.8155L187.718 41.0327C188.476 44.6501 189.098 48.481 189.587 52.3523C190.125 56.5917 190.485 60.7575 190.691 64.6656C190.886 68.4045 190.941 72.0293 190.872 75.3523C190.798 78.8005 190.581 81.8586 190.242 84.3352C189.867 87.0805 189.256 89.3952 188.421 91.1359C186.978 94.1277 184.8 95.8867 181.848 96.1517C177.016 96.5933 174.61 94.3117 173.425 90.1607C172.854 88.1698 172.803 85.833 172.744 83.0951C172.722 81.9543 172.696 80.6994 172.589 79.0839C172.505 77.7995 172.365 76.4747 172.118 75.1794C171.581 72.3789 170.451 69.6778 167.945 68.1506C164.883 66.2848 159.661 65.6224 150.951 67.2895C149.781 67.5139 148.625 67.352 147.617 66.8957C145.902 77.3911 144.952 86.1531 144.75 88.0999C144.68 91.1175 142.211 93.5389 139.179 93.5389C138.84 93.5389 138.512 93.5095 138.189 93.4506L136.422 93.2776C133.552 92.9943 131.41 90.5765 131.414 87.7503H131.395ZM150.02 53.8943C161.906 51.8666 169.892 53.4343 175.316 56.8714C175.839 57.2026 176.336 57.5485 176.81 57.9091C176.678 56.6175 176.534 55.3258 176.372 54.0378C175.934 50.5896 175.357 47.0605 174.621 43.5829C173.219 36.9589 171.338 31.012 168.939 27.0192C167.522 24.6567 166.12 23.181 164.832 23.1111C158.274 22.7467 153.354 38.0187 150.02 53.8943ZM66.5391 33.5549C66.5391 33.2789 66.5575 33.0139 66.5979 32.7527C66.9439 29.5179 70.2264 5.92914 92.0415 5.92914C96.4648 5.92914 100.218 6.59154 103.361 7.76546C107.107 9.17122 109.945 11.2983 111.983 13.9295C113.319 15.6554 114.287 17.58 114.916 19.6482C115.546 21.6979 115.822 23.8581 115.792 26.0735C115.763 28.0423 115.494 30.0589 115.012 32.0719L115.034 32.0755C114.556 34.0738 113.864 36.0941 112.984 38.085C110.732 43.2002 107.923 47.5129 103.019 52.1021C102.165 52.9011 101.536 53.4453 100.763 54.0709L101.135 54.2071C108.038 56.8162 114.585 62.5165 114.199 74.7967V74.8187C114.136 76.8575 113.838 78.7085 113.338 80.3755C112.778 82.2376 111.969 83.9157 110.949 85.4135C109.481 87.5663 107.612 89.2922 105.444 90.6133C103.258 91.9455 100.811 92.8507 98.2128 93.3623C95.946 93.8075 93.5208 93.9548 91.0221 93.8296C88.5491 93.7045 86.0099 93.3034 83.5039 92.6557C79.9674 91.7394 76.4677 90.3226 73.2808 88.4789C70.1602 86.672 67.3045 84.4456 64.964 81.8696C62.8959 79.5991 63.0615 76.081 65.332 74.0128L66.977 72.5151C69.2512 70.4506 72.7693 70.6162 74.8375 72.8867C76.2727 74.4655 78.0391 75.8381 79.9821 76.9605C82.1128 78.1859 84.4607 79.1354 86.8453 79.7536C88.4535 80.1695 90.0653 80.4271 91.6256 80.508C93.0314 80.5816 94.393 80.5007 95.6516 80.2504C96.7445 80.037 97.705 79.7021 98.4704 79.2421C99.0592 78.8888 99.556 78.4399 99.9277 77.8915C100.193 77.5051 100.406 77.0525 100.561 76.5299C100.745 75.9043 100.859 75.2015 100.881 74.4287C101.116 66.9325 94.2936 65.7991 90.9338 65.6923C89.6899 65.6555 88.884 65.7402 88.8435 65.7439L88.2768 65.7807V65.788C88.1112 65.7843 87.9383 65.7807 87.7727 65.7696C87.7359 65.7696 81.2812 65.3906 77.1669 64.1909C75.084 63.5837 73.2771 62.6416 72.1143 61.2285C69.4536 57.9901 69.4904 54.7333 73.6525 51.6384C75.5146 50.2584 79.3123 48.7312 86.0467 47.101C88.7111 46.4533 91.4674 44.7016 93.9661 42.3354C96.8034 39.6416 99.2101 36.2229 100.763 32.7048C101.33 31.4205 101.764 30.173 102.047 29.0027C102.312 27.9098 102.46 26.872 102.474 25.9152C102.485 25.0835 102.386 24.285 102.165 23.5527C102 22.9933 101.757 22.4965 101.433 22.0807C100.851 21.3299 99.9203 20.6859 98.5735 20.2002C96.9653 19.6261 94.8162 19.3023 92.0415 19.3023C81.708 19.3023 80.0594 32.381 79.8938 34.0112C79.7576 36.9663 77.3178 39.3178 74.3296 39.3178C74.1236 39.3178 73.9175 39.3067 73.7187 39.2847L71.6322 39.1043C68.7287 38.8541 66.5354 36.4143 66.5391 33.5549Z"/>
</mask>
<path d="M19.5455 10.3341C19.476 11.2481 16.412 53.0428 18.9851 74.4445C19.1725 76.0032 20.725 76.3751 21.4139 74.9644C22.1288 73.5003 22.9918 71.3902 23.9099 68.3971C26.8723 58.7335 29.5771 46.5637 31.936 35.9064C31.9728 35.6672 32.0243 35.4317 32.0906 35.1999C35.8111 18.397 38.8655 4.82146 46.0967 4.82146C51.9111 4.82146 54.8551 15.4125 56.1946 29.529C58.34 52.1352 58.8442 86.0133 58.8479 86.1568C58.881 89.2223 56.4264 91.7357 53.361 91.7725L51.1419 91.7983C48.0765 91.8351 45.5631 89.3768 45.5263 86.3151V86.293C45.5263 86.1752 45.1767 62.7336 44.161 42.2986C41.8573 52.6467 39.2519 63.9443 36.2784 73.2069C32.3923 85.2994 27.4207 94.4074 20.6531 95.585C12.9583 96.9208 8.78514 89.7779 6.8237 78.4914C2.81986 55.4619 6.15394 10.3783 6.22386 9.39202C6.23858 9.21906 6.25698 9.04978 6.28642 8.8805C6.73538 6.07634 9.25618 4.02658 12.145 4.21794L14.3861 4.37618C17.4515 4.5933 19.7626 7.25394 19.5455 10.3157V10.3341ZM476.414 88.1256C476.414 87.776 476.447 87.4375 476.509 87.1063C477.198 80.6405 485.415 8.77378 510.583 10.1685C516.541 10.4997 521.24 14.1282 524.879 19.8359C528.401 25.3595 530.955 32.9698 532.696 41.1909L532.736 41.408C533.494 45.0255 534.116 48.8563 534.606 52.7277C535.143 56.9634 535.504 61.1328 535.71 65.041C535.912 68.916 535.916 72.0551 535.787 74.8445C535.658 77.6744 535.393 80.0848 535.062 82.4989C534.687 85.2479 534.076 87.5626 533.24 89.2995C531.798 92.2914 529.619 94.0504 526.668 94.3191C521.836 94.757 519.429 92.4791 518.244 88.3243C517.674 86.3371 517.622 83.9967 517.564 81.2624C517.541 80.1179 517.512 78.8594 517.409 77.2476C517.324 75.9632 517.185 74.6384 516.938 73.3467C516.46 70.8407 515.93 69.2619 514.77 68.6253C512.632 67.4514 508.467 67.0355 500.963 67.1496C498.233 67.1791 495.94 65.236 495.447 62.6416H495.436L495.02 60.4594C494.442 57.4418 496.418 54.5272 499.436 53.9531L499.808 53.8943V53.8869C510.314 52.5768 517.037 53.6587 521.645 56.5586C521.564 55.8447 521.479 55.1271 521.391 54.4168C520.953 50.9392 520.371 47.4064 519.643 43.9583C518.237 37.3343 516.357 31.3874 513.957 27.3946C512.54 25.032 511.138 23.56 509.85 23.4864C496.904 22.7688 490.343 82.9589 489.768 88.4752C489.699 91.4928 487.229 93.9143 484.197 93.9143C483.862 93.9143 483.531 93.8848 483.211 93.8296L481.444 93.653C478.574 93.3696 476.428 90.9519 476.432 88.1256H476.414ZM434.289 48.2823C439.459 46.9759 449.141 45.4119 461.241 47.561C461.403 38.5965 461.591 30.2466 461.708 24.9179L461.72 24.3365C461.771 22.0843 461.804 20.5903 461.804 19.2066C461.804 16.1264 464.299 13.6351 467.376 13.6351H469.602C472.682 13.6351 475.177 16.1264 475.177 19.2066C475.177 19.409 475.163 19.6114 475.144 19.8101C475.104 21.628 475.096 23.4754 475.026 25.2933C474.669 41.3234 473.705 84.6517 474.257 86.3077C475.218 89.2186 473.639 92.3539 470.732 93.3181H470.725L470.732 93.3365L468.623 94.032C465.701 94.9962 462.555 93.4064 461.594 90.4845C461.392 89.8736 461.304 89.248 461.315 88.6371C460.888 84.2027 460.869 73.5565 461.017 61.8283L461.028 61.1328C445.413 57.7546 435.271 61.8799 435.209 61.9056C434.822 62.0639 434.432 62.1779 434.039 62.2442C433.84 74.5906 433.755 84.9608 434.02 85.7557C434.981 88.6629 433.402 91.8019 430.495 92.7624L430.487 92.7661L430.495 92.7845L428.39 93.48C425.468 94.4405 422.321 92.8544 421.357 89.9325C421.159 89.3216 421.067 88.696 421.081 88.0851C420.651 83.6581 420.636 73.0082 420.783 61.2763C420.953 47.6493 421.291 32.4914 421.471 24.3623L421.486 23.7882C421.534 21.536 421.567 20.1119 421.567 18.6509C421.567 15.5744 424.062 13.0794 427.139 13.0794H429.369C432.445 13.0794 434.94 15.5744 434.94 18.6509C434.94 18.857 434.929 19.0594 434.907 19.2581L434.789 24.6714C434.668 30.2061 434.469 39.0344 434.289 48.2823ZM359.092 87.0106C359.092 86.661 359.121 86.3187 359.184 85.9912C359.872 79.5255 368.086 7.65506 393.257 9.05346C399.215 9.38466 403.914 13.0131 407.554 18.7208C411.075 24.2445 413.629 31.8547 415.37 40.0759L415.41 40.293C416.172 43.9104 416.79 47.7376 417.28 51.6127C417.817 55.8483 418.181 60.0178 418.384 63.9259C418.579 67.6648 418.634 71.2896 418.564 74.6127C418.491 78.0571 418.277 81.1189 417.939 83.5956C417.563 86.3408 416.952 88.6592 416.113 90.3962C414.671 93.388 412.492 95.1471 409.544 95.412C404.709 95.8536 402.306 93.572 401.117 89.421C400.547 87.4301 400.499 85.0933 400.44 82.3554C400.414 81.2146 400.389 79.9523 400.286 78.3442C400.201 77.0599 400.061 75.7351 399.811 74.4397C399.274 71.6392 398.144 68.9381 395.638 67.4109C392.576 65.5451 387.354 64.8827 378.644 66.5498C377.473 66.7743 376.321 66.6123 375.309 66.156C373.595 76.6514 372.645 85.4135 372.443 87.3602C372.373 90.3778 369.907 92.7992 366.871 92.7992C366.536 92.7992 366.205 92.7698 365.885 92.7109L364.119 92.5379C361.248 92.2546 359.103 89.8368 359.106 87.0106H359.092ZM377.716 53.1546C389.603 51.1269 397.585 52.6909 403.009 56.1317C403.531 56.4629 404.028 56.8088 404.503 57.1695C404.374 55.8778 404.227 54.5861 404.065 53.3018C403.631 49.8499 403.049 46.3208 402.313 42.8432C400.911 36.2192 399.031 30.2723 396.635 26.2795C395.218 23.9207 393.812 22.445 392.525 22.3714C385.97 22.0071 381.05 37.2791 377.716 53.1546ZM330.991 53.2576C334.082 53.633 337.803 54.564 341.461 56.6395C346.804 59.6719 351.875 65.0336 354.385 74.4139C355.404 78.2227 356.001 82.6903 356.001 87.9232C356.001 90.9997 353.505 93.4947 350.429 93.4947H348.199C345.122 93.4947 342.627 90.9997 342.627 87.9232C342.627 83.993 342.212 80.7693 341.505 78.1234C340.059 72.7175 337.387 69.7919 334.656 68.2426C331.9 66.6786 328.945 66.3879 327.135 66.3879C326.281 66.3879 326.321 66.3106 326.314 66.3106L326.181 66.3474L326.17 89.6823C326.17 92.744 323.686 95.2317 320.621 95.2317V95.2538H318.391C315.314 95.2538 312.819 92.7587 312.819 89.6823C312.819 89.513 312.827 89.3474 312.841 89.1818L312.875 17.2599C312.875 14.1981 315.359 11.7104 318.424 11.7104V11.6883H320.654C323.731 11.6883 326.226 14.1834 326.226 17.2599C326.226 17.4291 326.218 17.5947 326.204 17.7603L326.196 32.3479C331.819 22.721 340.199 12.4538 350.62 11.7104C353.686 11.4933 356.346 13.8007 356.564 16.8661L356.718 19.0851C356.935 22.1506 354.628 24.8112 351.562 25.0283C341.314 25.7607 332.338 49.5261 330.991 53.2576ZM250.867 87.4448C250.867 87.0952 250.9 86.753 250.959 86.4255C251.647 79.9597 259.861 8.0893 285.032 9.4877C290.99 9.8189 295.693 13.4474 299.332 19.1551C302.854 24.6787 305.408 32.289 307.148 40.5101L307.189 40.7272C307.947 44.3447 308.569 48.1755 309.058 52.0469C309.592 56.2863 309.956 60.452 310.162 64.3602C310.357 68.0991 310.413 71.7239 310.343 75.0469C310.265 78.4914 310.052 81.5531 309.713 84.0298C309.338 86.7751 308.727 89.0898 307.892 90.8304C306.449 93.8223 304.271 95.5813 301.319 95.8463C296.488 96.2879 294.081 94.0063 292.896 89.8552C292.325 87.8643 292.274 85.5275 292.215 82.7896C292.193 81.6488 292.164 80.3866 292.061 78.7784C291.976 77.4941 291.836 76.1693 291.589 74.8739C291.052 72.0735 289.922 69.3723 287.416 67.8451C284.355 65.9794 279.133 65.317 270.422 66.984C269.252 67.2085 268.096 67.0466 267.088 66.5903C265.373 77.0856 264.424 85.8477 264.221 87.7944C264.148 90.812 261.682 93.2335 258.65 93.2335C258.311 93.2335 257.984 93.204 257.66 93.1451L255.893 92.9722C253.023 92.6888 250.881 90.2711 250.885 87.4448H250.867ZM269.491 53.5888C281.378 51.5611 289.363 53.1288 294.787 56.5659C295.31 56.8971 295.807 57.2431 296.278 57.6037C296.149 56.312 296.005 55.0203 295.844 53.736C295.402 50.2584 294.824 46.7256 294.096 43.2775C292.69 36.6535 290.806 30.7066 288.41 26.7138C286.993 24.3512 285.591 22.8792 284.303 22.8056C277.745 22.4413 272.825 37.7133 269.491 53.5888ZM236.853 24.7008L236.596 24.6419C235.723 24.4653 231.572 23.6815 226.505 23.6815C219.042 23.6815 209.433 25.573 209.433 35.3103C209.433 38.5891 209.301 42.1072 209.128 45.6511C210.096 45.0475 211.259 44.7347 212.48 44.8267L212.503 44.8304C214.552 44.9923 216.779 44.9666 219.13 44.9371H219.255C225.585 44.8562 232.636 44.7752 238.723 47.1267C245.84 49.8794 251.006 55.3663 251.33 66.3179C251.492 71.8048 251.124 76.2392 250.05 79.8861C248.791 84.1659 246.624 87.3565 243.33 89.7522C240.334 91.9344 236.647 93.2077 232.047 93.8591C228.04 94.4258 223.219 94.5251 217.393 94.3779C207.196 94.1167 201.378 89.6749 198.136 82.5541C198.059 82.3848 197.992 82.2155 197.933 82.0426C195.35 76.0037 194.909 68.3309 195.122 59.8743C195.214 56.3819 195.383 53.1803 195.556 49.9162L195.567 49.7211C195.81 45.1175 196.06 40.3813 196.06 35.3103C196.06 14.3159 213.342 10.3194 226.487 10.3194C233.552 10.3194 239.4 11.5816 239.576 11.6221C242.579 12.2698 244.489 15.2322 243.841 18.2351L243.385 20.3915C242.752 23.3723 239.838 25.2859 236.857 24.6935L236.853 24.7008ZM208.554 57.048C208.506 58.152 208.466 59.2045 208.444 60.1871C208.274 66.8221 208.528 72.6402 210.195 76.5152C211.369 79.2495 213.625 80.9533 217.706 81.0563C222.711 81.1851 226.766 81.1226 229.942 80.7031C232.514 80.3645 234.351 79.8272 235.495 78.9955L235.506 78.9882L235.495 78.9735C236.334 78.3626 236.927 77.3616 237.332 75.8859C237.935 73.689 238.126 70.6567 238.012 66.6823C237.887 62.4797 235.992 60.4483 233.387 59.4952C229.637 58.1299 224.216 58.1962 219.358 58.2551C217.989 58.2735 216.657 58.2919 215.351 58.2808H215.336C213.831 58.2661 212.499 58.2293 211.457 58.1447C210.365 58.06 209.371 57.6626 208.554 57.048ZM131.395 87.7503C131.395 87.4007 131.428 87.0584 131.487 86.7309C132.179 80.2651 140.393 8.39474 165.561 9.79314C171.518 10.1243 176.221 13.7528 179.861 19.4605C183.383 24.9842 185.937 32.5944 187.677 40.8155L187.718 41.0327C188.476 44.6501 189.098 48.481 189.587 52.3523C190.125 56.5917 190.485 60.7575 190.691 64.6656C190.886 68.4045 190.941 72.0293 190.872 75.3523C190.798 78.8005 190.581 81.8586 190.242 84.3352C189.867 87.0805 189.256 89.3952 188.421 91.1359C186.978 94.1277 184.8 95.8867 181.848 96.1517C177.016 96.5933 174.61 94.3117 173.425 90.1607C172.854 88.1698 172.803 85.833 172.744 83.0951C172.722 81.9543 172.696 80.6994 172.589 79.0839C172.505 77.7995 172.365 76.4747 172.118 75.1794C171.581 72.3789 170.451 69.6778 167.945 68.1506C164.883 66.2848 159.661 65.6224 150.951 67.2895C149.781 67.5139 148.625 67.352 147.617 66.8957C145.902 77.3911 144.952 86.1531 144.75 88.0999C144.68 91.1175 142.211 93.5389 139.179 93.5389C138.84 93.5389 138.512 93.5095 138.189 93.4506L136.422 93.2776C133.552 92.9943 131.41 90.5765 131.414 87.7503H131.395ZM150.02 53.8943C161.906 51.8666 169.892 53.4343 175.316 56.8714C175.839 57.2026 176.336 57.5485 176.81 57.9091C176.678 56.6175 176.534 55.3258 176.372 54.0378C175.934 50.5896 175.357 47.0605 174.621 43.5829C173.219 36.9589 171.338 31.012 168.939 27.0192C167.522 24.6567 166.12 23.181 164.832 23.1111C158.274 22.7467 153.354 38.0187 150.02 53.8943ZM66.5391 33.5549C66.5391 33.2789 66.5575 33.0139 66.5979 32.7527C66.9439 29.5179 70.2264 5.92914 92.0415 5.92914C96.4648 5.92914 100.218 6.59154 103.361 7.76546C107.107 9.17122 109.945 11.2983 111.983 13.9295C113.319 15.6554 114.287 17.58 114.916 19.6482C115.546 21.6979 115.822 23.8581 115.792 26.0735C115.763 28.0423 115.494 30.0589 115.012 32.0719L115.034 32.0755C114.556 34.0738 113.864 36.0941 112.984 38.085C110.732 43.2002 107.923 47.5129 103.019 52.1021C102.165 52.9011 101.536 53.4453 100.763 54.0709L101.135 54.2071C108.038 56.8162 114.585 62.5165 114.199 74.7967V74.8187C114.136 76.8575 113.838 78.7085 113.338 80.3755C112.778 82.2376 111.969 83.9157 110.949 85.4135C109.481 87.5663 107.612 89.2922 105.444 90.6133C103.258 91.9455 100.811 92.8507 98.2128 93.3623C95.946 93.8075 93.5208 93.9548 91.0221 93.8296C88.5491 93.7045 86.0099 93.3034 83.5039 92.6557C79.9674 91.7394 76.4677 90.3226 73.2808 88.4789C70.1602 86.672 67.3045 84.4456 64.964 81.8696C62.8959 79.5991 63.0615 76.081 65.332 74.0128L66.977 72.5151C69.2512 70.4506 72.7693 70.6162 74.8375 72.8867C76.2727 74.4655 78.0391 75.8381 79.9821 76.9605C82.1128 78.1859 84.4607 79.1354 86.8453 79.7536C88.4535 80.1695 90.0653 80.4271 91.6256 80.508C93.0314 80.5816 94.393 80.5007 95.6516 80.2504C96.7445 80.037 97.705 79.7021 98.4704 79.2421C99.0592 78.8888 99.556 78.4399 99.9277 77.8915C100.193 77.5051 100.406 77.0525 100.561 76.5299C100.745 75.9043 100.859 75.2015 100.881 74.4287C101.116 66.9325 94.2936 65.7991 90.9338 65.6923C89.6899 65.6555 88.884 65.7402 88.8435 65.7439L88.2768 65.7807V65.788C88.1112 65.7843 87.9383 65.7807 87.7727 65.7696C87.7359 65.7696 81.2812 65.3906 77.1669 64.1909C75.084 63.5837 73.2771 62.6416 72.1143 61.2285C69.4536 57.9901 69.4904 54.7333 73.6525 51.6384C75.5146 50.2584 79.3123 48.7312 86.0467 47.101C88.7111 46.4533 91.4674 44.7016 93.9661 42.3354C96.8034 39.6416 99.2101 36.2229 100.763 32.7048C101.33 31.4205 101.764 30.173 102.047 29.0027C102.312 27.9098 102.46 26.872 102.474 25.9152C102.485 25.0835 102.386 24.285 102.165 23.5527C102 22.9933 101.757 22.4965 101.433 22.0807C100.851 21.3299 99.9203 20.6859 98.5735 20.2002C96.9653 19.6261 94.8162 19.3023 92.0415 19.3023C81.708 19.3023 80.0594 32.381 79.8938 34.0112C79.7576 36.9663 77.3178 39.3178 74.3296 39.3178C74.1236 39.3178 73.9175 39.3067 73.7187 39.2847L71.6322 39.1043C68.7287 38.8541 66.5354 36.4143 66.5391 33.5549Z" fill="#E5EDFF" fill-opacity="0.73" stroke="#03005E" stroke-opacity="0.35" stroke-width="2" mask="url(#path-12-inside-1_0_1)"/>
<path d="M12.8846 9.8483C12.8846 9.8483 6.79792 91.2168 19.527 89.0014C32.2598 86.7897 41.1176 11.508 46.0966 11.508C51.0794 11.508 52.187 86.2341 52.187 86.2341M483.093 88.236C483.093 88.236 490.287 15.7216 510.215 16.8293C530.142 17.9333 532.59 87.6803 526.5 88.236C520.413 88.788 535.919 51.1305 500.481 59.4142M432.681 55.7379C432.681 55.7379 444.861 50.7589 462.573 54.6302M468.491 19.2065C468.491 21.4182 466.831 85.0749 467.935 88.3979M428.254 18.6509C428.254 20.8662 426.594 84.5229 427.702 87.8459M365.767 87.1209C365.767 87.1209 373.024 13.4952 392.951 14.6029C412.879 15.7105 414.587 87.4632 408.5 88.0189C402.41 88.5709 417.406 51.7499 377 59.5M325.5 59.5C325.5 59.5 348.284 55.9145 348.284 88.0189M324.522 50C324.522 50 335.5 19.6077 351 18.5M320 18.5L319.5 89.5M257.645 88.6592C257.645 88.6592 265.073 14.8923 285 16C304.927 17.1077 306.909 89.7669 300.819 90.3189C294.732 90.8745 310.41 51.7536 270 59.5M238.174 18.1504C238.174 18.1504 202.747 10.4003 202.747 35.3102C202.747 60.2201 195.961 87.1651 217.548 87.7171C239.138 88.2728 245.225 85.3214 244.669 66.4982C244.117 47.6787 223.193 52.4038 211.98 51.4875M137.975 86.7529C137.975 86.7529 145.17 14.2385 165.097 15.3462C185.024 16.4539 187.239 87.8606 181.149 88.4126C175.059 88.9683 190.007 51.8813 149.597 59.6277M73.2219 33.6505C73.2219 33.6505 74.8448 12.6157 92.0414 12.6157C123.038 12.6157 105.878 49.147 87.6144 53.5777C69.3469 58.0048 88.1664 59.1124 88.1664 59.1124C88.1664 59.1124 108.094 56.8971 107.542 74.6126C106.986 92.3245 80.9683 89.5571 69.8989 77.38" stroke="#0000FF" stroke-width="2.944" stroke-miterlimit="22.9256" stroke-linecap="round" stroke-linejoin="round"/>
<g opacity="0.8" filter="url(#filter0_f_0_1)">
<path d="M12.8846 9.8483C12.8846 9.8483 6.79792 91.2168 19.527 89.0014C32.2598 86.7897 41.1176 11.508 46.0966 11.508C51.0794 11.508 52.187 86.2341 52.187 86.2341M483.093 88.236C483.093 88.236 490.287 15.7216 510.215 16.8293C530.142 17.9333 532.59 87.6803 526.5 88.236C520.413 88.788 535.919 51.1305 500.481 59.4142M432.681 55.7379C432.681 55.7379 444.861 50.7589 462.573 54.6302M468.491 19.2065C468.491 21.4182 466.831 85.0749 467.935 88.3979M428.254 18.6509C428.254 20.8662 426.594 84.5229 427.702 87.8459M365.767 87.1209C365.767 87.1209 373.024 13.4952 392.951 14.6029C412.879 15.7105 414.587 87.4632 408.5 88.0189C402.41 88.5709 417.406 51.7499 377 59.5M325.5 59.5C325.5 59.5 348.284 55.9145 348.284 88.0189M324.522 50C324.522 50 335.5 19.6077 351 18.5M318.391 20.4909V89.6822M257.645 88.6592C257.645 88.6592 265.073 14.8923 285 16C304.927 17.1077 306.909 89.7669 300.819 90.3189C294.732 90.8745 310.41 51.7536 270 59.5M238.174 18.1504C238.174 18.1504 202.747 10.4003 202.747 35.3102C202.747 60.2201 195.961 87.1651 217.548 87.7171C239.138 88.2728 245.225 85.3214 244.669 66.4982C244.117 47.6787 223.193 52.4038 211.98 51.4875M137.975 86.7529C137.975 86.7529 145.17 14.2385 165.097 15.3462C185.024 16.4539 187.239 87.8606 181.149 88.4126C175.059 88.9683 190.007 51.8813 149.597 59.6277M73.2219 33.6505C73.2219 33.6505 74.8448 12.6157 92.0414 12.6157C123.038 12.6157 105.878 49.147 87.6144 53.5777C69.3469 58.0048 88.1664 59.1124 88.1664 59.1124C88.1664 59.1124 108.094 56.8971 107.542 74.6126C106.986 92.3245 80.9683 89.5571 69.8989 77.38" stroke="#0000FF" stroke-width="2.944" stroke-miterlimit="22.9256" stroke-linecap="round" stroke-linejoin="round"/>
</g>
<defs>
<filter id="filter0_f_0_1" x="-0.94187" y="-2.52378" width="542.75" height="105.22" filterUnits="userSpaceOnUse" color-interpolation-filters="sRGB">
<feFlood flood-opacity="0" result="BackgroundImageFix"/>
<feBlend mode="normal" in="SourceGraphic" in2="BackgroundImageFix" result="shape"/>
<feGaussianBlur stdDeviation="5.45" result="effect1_foregroundBlur_0_1"/>
</filter>
</defs>
</svg>
