<svg width="217" height="25" viewBox="0 0 217 25" fill="none" xmlns="http://www.w3.org/2000/svg">
    <path
        d="M0.48125 12.7118C0.48125 12.109 0.583333 11.55 0.7875 11.0347C1.00139 10.5097 1.29306 10.0577 1.6625 9.67848C2.03194 9.28959 2.46458 8.98821 2.96042 8.77432C3.46597 8.55071 4.00556 8.4389 4.57917 8.4389C5.13333 8.4389 5.64375 8.54098 6.11042 8.74515C6.5868 8.9396 6.98542 9.22154 7.30625 9.59098V5.95973H8.96875V16.7368H7.42292V15.5556C7.0243 16.032 6.60625 16.382 6.16875 16.6056C5.73125 16.8195 5.21597 16.9264 4.62292 16.9264C4.03958 16.9264 3.49514 16.8195 2.98958 16.6056C2.48403 16.3917 2.04167 16.0951 1.6625 15.716C1.29306 15.3368 1.00139 14.8896 0.7875 14.3743C0.583333 13.859 0.48125 13.3049 0.48125 12.7118ZM2.14375 12.6681C2.14375 13.0472 2.21181 13.407 2.34792 13.7472C2.49375 14.0778 2.68333 14.3695 2.91667 14.6222C3.15972 14.8653 3.44167 15.0597 3.7625 15.2056C4.09306 15.3417 4.44792 15.4097 4.82708 15.4097C5.18681 15.4097 5.52222 15.3417 5.83333 15.2056C6.15417 15.0597 6.43125 14.8653 6.66458 14.6222C6.89792 14.3695 7.08264 14.0778 7.21875 13.7472C7.35486 13.4167 7.42292 13.0618 7.42292 12.6826C7.42292 12.2938 7.35486 11.934 7.21875 11.6035C7.08264 11.2632 6.89305 10.9715 6.65 10.7285C6.41667 10.4854 6.13472 10.2958 5.80417 10.1597C5.47361 10.0236 5.11389 9.95557 4.725 9.95557C4.36528 9.95557 4.025 10.0285 3.70417 10.1743C3.39306 10.3104 3.12083 10.5 2.8875 10.7431C2.65417 10.9861 2.46944 11.2729 2.33333 11.6035C2.20694 11.934 2.14375 12.2889 2.14375 12.6681ZM18.4607 14.2722C18.3343 14.6611 18.1398 15.0208 17.8773 15.3514C17.6246 15.6722 17.328 15.9493 16.9878 16.1826C16.6475 16.416 16.2732 16.6007 15.8648 16.7368C15.4565 16.8632 15.0336 16.9264 14.5961 16.9264C13.9836 16.9264 13.4148 16.8195 12.8898 16.6056C12.3648 16.3917 11.9079 16.0951 11.519 15.716C11.1398 15.3368 10.8385 14.8945 10.6148 14.3889C10.3912 13.8736 10.2794 13.3195 10.2794 12.7264C10.2794 12.1333 10.3864 11.5792 10.6003 11.0639C10.8239 10.5486 11.1253 10.1014 11.5044 9.72223C11.8836 9.34307 12.326 9.04654 12.8315 8.83265C13.3468 8.60904 13.901 8.49723 14.494 8.49723C15.0871 8.49723 15.6364 8.60904 16.1419 8.83265C16.6572 9.04654 17.0996 9.34307 17.469 9.72223C17.8482 10.1014 18.1447 10.5535 18.3586 11.0785C18.5725 11.5938 18.6794 12.1528 18.6794 12.7556C18.6794 12.8917 18.6697 13.0083 18.6503 13.1056C18.6405 13.1931 18.626 13.2952 18.6065 13.4118H12.0294C12.1266 14.0049 12.4037 14.4861 12.8607 14.8556C13.3273 15.225 13.8912 15.4097 14.5523 15.4097C15.476 15.4097 16.1808 15.0306 16.6669 14.2722H18.4607ZM17.0315 11.9389C16.8857 11.3264 16.594 10.8549 16.1565 10.5243C15.719 10.184 15.1697 10.0139 14.5086 10.0139C13.8669 10.0139 13.3273 10.184 12.8898 10.5243C12.4523 10.8549 12.1558 11.3264 12.0003 11.9389H17.0315ZM19.1851 8.68682H20.9788L23.1663 14.491L25.3392 8.68682H27.1621L23.8809 16.7368H22.4663L19.1851 8.68682ZM35.8923 14.2722C35.7659 14.6611 35.5715 15.0208 35.309 15.3514C35.0562 15.6722 34.7597 15.9493 34.4194 16.1826C34.0791 16.416 33.7048 16.6007 33.2965 16.7368C32.8881 16.8632 32.4652 16.9264 32.0277 16.9264C31.4152 16.9264 30.8465 16.8195 30.3215 16.6056C29.7965 16.3917 29.3395 16.0951 28.9506 15.716C28.5715 15.3368 28.2701 14.8945 28.0465 14.3889C27.8229 13.8736 27.7111 13.3195 27.7111 12.7264C27.7111 12.1333 27.818 11.5792 28.0319 11.0639C28.2555 10.5486 28.5569 10.1014 28.9361 9.72223C29.3152 9.34307 29.7576 9.04654 30.2631 8.83265C30.7784 8.60904 31.3326 8.49723 31.9256 8.49723C32.5187 8.49723 33.068 8.60904 33.5736 8.83265C34.0888 9.04654 34.5312 9.34307 34.9006 9.72223C35.2798 10.1014 35.5763 10.5535 35.7902 11.0785C36.0041 11.5938 36.1111 12.1528 36.1111 12.7556C36.1111 12.8917 36.1013 13.0083 36.0819 13.1056C36.0722 13.1931 36.0576 13.2952 36.0381 13.4118H29.4611C29.5583 14.0049 29.8354 14.4861 30.2923 14.8556C30.759 15.225 31.3229 15.4097 31.984 15.4097C32.9076 15.4097 33.6125 15.0306 34.0986 14.2722H35.8923ZM34.4631 11.9389C34.3173 11.3264 34.0256 10.8549 33.5881 10.5243C33.1506 10.184 32.6013 10.0139 31.9402 10.0139C31.2986 10.0139 30.759 10.184 30.3215 10.5243C29.884 10.8549 29.5875 11.3264 29.4319 11.9389H34.4631ZM37.375 5.95973H39.0229V16.7368H37.375V5.95973ZM40.3291 12.7264C40.3291 12.1236 40.436 11.5646 40.6499 11.0493C40.8735 10.534 41.1749 10.0868 41.5541 9.70765C41.943 9.32848 42.3999 9.03196 42.9249 8.81807C43.4499 8.60418 44.0138 8.49723 44.6166 8.49723C45.1999 8.49723 45.7492 8.60904 46.2645 8.83265C46.7798 9.04654 47.227 9.34793 47.6061 9.73682C47.9853 10.116 48.2818 10.5632 48.4957 11.0785C48.7193 11.5938 48.8311 12.1431 48.8311 12.7264C48.8311 13.3097 48.7193 13.859 48.4957 14.3743C48.2818 14.8799 47.9853 15.3222 47.6061 15.7014C47.227 16.0806 46.7798 16.382 46.2645 16.6056C45.7492 16.8195 45.1999 16.9264 44.6166 16.9264C44.0138 16.9264 43.4499 16.8195 42.9249 16.6056C42.4096 16.382 41.9575 16.0806 41.5686 15.7014C41.1798 15.3222 40.8735 14.8799 40.6499 14.3743C40.436 13.859 40.3291 13.3097 40.3291 12.7264ZM44.5874 15.4097C44.9568 15.4097 45.2971 15.3417 45.6082 15.2056C45.9193 15.0695 46.1867 14.8799 46.4103 14.6368C46.6436 14.3938 46.8235 14.1118 46.9499 13.791C47.086 13.4702 47.1541 13.1202 47.1541 12.741C47.1541 12.3521 47.086 11.9924 46.9499 11.6618C46.8235 11.3313 46.6436 11.0445 46.4103 10.8014C46.177 10.5583 45.8999 10.3688 45.5791 10.2327C45.2582 10.0868 44.9131 10.0139 44.5436 10.0139C44.1936 10.0139 43.8631 10.0868 43.552 10.2327C43.2409 10.3688 42.9686 10.5583 42.7353 10.8014C42.502 11.0445 42.3173 11.3313 42.1811 11.6618C42.0548 11.9924 41.9916 12.3472 41.9916 12.7264C41.9916 13.1056 42.0596 13.4604 42.1957 13.791C42.3318 14.1118 42.5166 14.3938 42.7499 14.6368C42.9832 14.8701 43.2555 15.0597 43.5666 15.2056C43.8874 15.3417 44.2277 15.4097 44.5874 15.4097ZM50.1354 8.68682H51.6813V9.78057C52.0021 9.36251 52.4007 9.04654 52.8771 8.83265C53.3535 8.60904 53.8931 8.49723 54.4959 8.49723C55.0792 8.49723 55.6188 8.60418 56.1146 8.81807C56.6202 9.02223 57.0528 9.3139 57.4125 9.69307C57.782 10.0625 58.0688 10.5049 58.2729 11.0202C58.4771 11.5354 58.5792 12.0945 58.5792 12.6972C58.5792 13.3 58.4722 13.859 58.2584 14.3743C58.0542 14.8896 57.7674 15.3368 57.3979 15.716C57.0382 16.0951 56.6056 16.3917 56.1 16.6056C55.6042 16.8195 55.0646 16.9264 54.4813 16.9264C53.9271 16.9264 53.4313 16.834 52.9938 16.6493C52.5563 16.4646 52.1528 16.1729 51.7834 15.7743V19.4639H50.1354V8.68682ZM54.3209 15.4097C54.6903 15.4097 55.0306 15.3417 55.3417 15.2056C55.6625 15.0695 55.9396 14.8799 56.1729 14.6368C56.4063 14.3938 56.5861 14.1118 56.7125 13.791C56.8486 13.4702 56.9167 13.1202 56.9167 12.741C56.9167 12.3424 56.8486 11.9778 56.7125 11.6472C56.5861 11.3167 56.4014 11.0299 56.1584 10.7868C55.925 10.5438 55.6479 10.3542 55.3271 10.2181C55.0063 10.082 54.6563 10.0139 54.2771 10.0139C53.9077 10.0139 53.5625 10.0868 53.2417 10.2327C52.9306 10.3688 52.6584 10.5583 52.425 10.8014C52.1917 11.0445 52.007 11.3313 51.8709 11.6618C51.7445 11.9924 51.6813 12.3521 51.6813 12.741C51.6813 13.1202 51.7493 13.4702 51.8854 13.791C52.0216 14.1118 52.2063 14.3938 52.4396 14.6368C52.6827 14.8799 52.9646 15.0695 53.2854 15.2056C53.6063 15.3417 53.9514 15.4097 54.3209 15.4097ZM63.964 5.95973H65.6119V9.64932C65.9813 9.22154 66.3799 8.91529 66.8077 8.73057C67.2452 8.53612 67.7556 8.4389 68.339 8.4389C68.9223 8.4389 69.4619 8.54585 69.9577 8.75973C70.4633 8.97362 70.9008 9.27015 71.2702 9.64932C71.6397 10.0285 71.9265 10.4757 72.1306 10.991C72.3445 11.5063 72.4515 12.0653 72.4515 12.6681C72.4515 13.2806 72.3494 13.8493 72.1452 14.3743C71.9411 14.8896 71.6591 15.3368 71.2994 15.716C70.9494 16.0951 70.5265 16.3917 70.0306 16.6056C69.5348 16.8195 68.9952 16.9264 68.4119 16.9264C67.7994 16.9264 67.2598 16.8195 66.7931 16.6056C66.3265 16.3917 65.8987 16.0514 65.5098 15.5847V16.7368H63.964V5.95973ZM68.164 15.4097C68.5431 15.4097 68.8931 15.3417 69.214 15.2056C69.5348 15.0695 69.8119 14.8847 70.0452 14.6514C70.2786 14.4083 70.4584 14.1215 70.5848 13.791C70.7112 13.4507 70.7744 13.0813 70.7744 12.6826C70.7744 12.284 70.7063 11.9195 70.5702 11.5889C70.4438 11.2486 70.2591 10.957 70.0161 10.7139C69.7827 10.4708 69.5008 10.2861 69.1702 10.1597C68.8494 10.0236 68.4945 9.95557 68.1056 9.95557C67.7362 9.95557 67.3911 10.0236 67.0702 10.1597C66.7591 10.2958 66.4869 10.4903 66.2536 10.7431C66.0202 10.9861 65.8355 11.2729 65.6994 11.6035C65.573 11.934 65.5098 12.2986 65.5098 12.6972C65.5098 13.0861 65.5779 13.4458 65.714 13.7764C65.8501 14.107 66.0348 14.3938 66.2681 14.6368C66.5015 14.8799 66.7786 15.0695 67.0994 15.2056C67.4299 15.3417 67.7848 15.4097 68.164 15.4097ZM75.9937 16.1389L72.9896 8.68682H74.8562L76.8979 14.3014L79.1 8.68682H80.9667L76.3292 19.4639H74.55L75.9937 16.1389Z"
        fill="#232DFC" />
    <g clip-path="url(#clip0_305_1807)">
        <g clip-path="url(#clip1_305_1807)">
            <mask id="mask0_305_1807" style="mask-type:alpha" maskUnits="userSpaceOnUse" x="91" y="0" width="46"
                height="25">
                <path
                    d="M91.0881 0.00292969H96.2772V3.80703H107.742V0.00292969H112.934V11.5745H107.742V7.77391H96.2772V11.5745H91.0881V0.00292969Z"
                    fill="black" />
                <path
                    d="M136.091 5.7887C136.13 8.90629 133.483 11.7832 130.343 11.7408C128.635 11.5815 119.153 12.1796 117.761 11.2631C113.085 9.07615 114.435 4.13612 114.245 0.00292969H119.438C119.336 9.9502 118.679 6.97416 129.257 7.43419C129.474 7.43608 129.688 7.39452 129.888 7.31192C130.089 7.22932 130.271 7.10735 130.423 6.95314C130.576 6.79893 130.697 6.61557 130.779 6.41381C130.86 6.21205 130.901 5.99592 130.899 5.77808V0.00292969H136.091V5.7887Z"
                    fill="black" />
                <path
                    d="M91.0884 12.9116H96.2774L107.742 19.5254V12.9116H112.934V24.4832H107.742L96.2774 17.8658V24.4761H91.0884V12.9116Z"
                    fill="black" />
                <mask id="mask1_305_1807" style="mask-type:luminance" maskUnits="userSpaceOnUse" x="114" y="12"
                    width="23" height="13">
                    <path d="M136.09 12.8979H114.248V24.4695H136.09V12.8979Z" fill="white" />
                </mask>
                <g mask="url(#mask1_305_1807)">
                    <path d="M122.55 16.8669H114.246V12.9106H136.092V16.8775H127.749V24.4822H122.55V16.8669Z"
                        fill="black" />
                    <path d="M122.617 13.4571L111.823 24.3218L114.61 27.1268L125.404 16.2621L122.617 13.4571Z"
                        fill="black" />
                    <path d="M127.956 13.4557L125.169 16.2607L135.195 26.3523L137.982 23.5472L127.956 13.4557Z"
                        fill="black" />
                </g>
            </mask>
            <g mask="url(#mask0_305_1807)">
                <path
                    d="M91.0881 0.00292969H96.2772V3.80703H107.742V0.00292969H112.934V11.5745H107.742V7.77391H96.2772V11.5745H91.0881V0.00292969Z"
                    fill="#232DFC" />
                <path
                    d="M136.091 5.7887C136.13 8.90629 133.483 11.7832 130.343 11.7408C128.635 11.5815 119.153 12.1796 117.761 11.2631C113.085 9.07615 114.435 4.13612 114.245 0.00292969H119.438C119.336 9.9502 118.679 6.97416 129.257 7.43419C129.474 7.43608 129.688 7.39452 129.888 7.31192C130.089 7.22932 130.271 7.10735 130.423 6.95314C130.576 6.79893 130.697 6.61557 130.779 6.41381C130.86 6.21205 130.901 5.99592 130.899 5.77808V0.00292969H136.091V5.7887Z"
                    fill="#232DFC" />
                <path
                    d="M91.0884 12.9116H96.2774L107.742 19.5254V12.9116H112.934V24.4832H107.742L96.2774 17.8658V24.4761H91.0884V12.9116Z"
                    fill="#232DFC" />
                <mask id="mask2_305_1807" style="mask-type:luminance" maskUnits="userSpaceOnUse" x="114" y="12"
                    width="23" height="13">
                    <path d="M136.09 12.8979H114.248V24.4695H136.09V12.8979Z" fill="white" />
                </mask>
                <g mask="url(#mask2_305_1807)">
                    <path d="M122.55 16.8669H114.246V12.9106H136.092V16.8775H127.749V24.4822H122.55V16.8669Z"
                        fill="#232DFC" />
                    <path d="M122.617 13.4571L111.823 24.3218L114.61 27.1268L125.404 16.2621L122.617 13.4571Z"
                        fill="#232DFC" />
                    <path d="M127.956 13.4557L125.169 16.2607L135.195 26.3523L137.982 23.5472L127.956 13.4557Z"
                        fill="#232DFC" />
                </g>
            </g>
        </g>
    </g>
    <path
        d="M146.065 5.95973H147.756V10.4368H152.175V5.95973H153.867V16.7368H152.175V12.041H147.756V16.7368H146.065V5.95973ZM161.314 15.8035C160.974 16.2118 160.624 16.5035 160.264 16.6785C159.904 16.8438 159.457 16.9264 158.922 16.9264C157.862 16.9264 157.065 16.6007 156.531 15.9493C156.006 15.2882 155.743 14.3111 155.743 13.0181V8.68682H157.391V12.7556C157.391 13.6792 157.532 14.3549 157.814 14.7826C158.106 15.2007 158.567 15.4097 159.199 15.4097C159.899 15.4097 160.41 15.1861 160.731 14.7389C161.061 14.2917 161.226 13.5771 161.226 12.5952V8.68682H162.874V16.7368H161.314V15.8035ZM164.53 8.68682H166.091V9.54723C166.431 9.17779 166.786 8.91043 167.155 8.74515C167.525 8.57987 167.957 8.49723 168.453 8.49723C169.542 8.49723 170.349 8.82293 170.874 9.47432C171.399 10.116 171.662 11.1077 171.662 12.4493V16.7368H170.014V12.7118C170.014 11.7688 169.863 11.0833 169.562 10.6556C169.27 10.2278 168.803 10.0139 168.162 10.0139C167.491 10.0139 166.99 10.2375 166.66 10.6847C166.339 11.1222 166.178 11.8077 166.178 12.741V16.7368H164.53V8.68682ZM173.857 10.1889H172.662V8.68682H173.857V5.95973H175.52V8.68682H176.891V10.1889H175.52V16.7368H173.857V10.1889ZM179.332 7.5639H177.174V5.95973H183.168V7.5639H181.024V16.7368H179.332V7.5639ZM191.93 14.2722C191.803 14.6611 191.609 15.0208 191.346 15.3514C191.093 15.6722 190.797 15.9493 190.457 16.1826C190.116 16.416 189.742 16.6007 189.334 16.7368C188.925 16.8632 188.502 16.9264 188.065 16.9264C187.452 16.9264 186.884 16.8195 186.359 16.6056C185.834 16.3917 185.377 16.0951 184.988 15.716C184.609 15.3368 184.307 14.8945 184.084 14.3889C183.86 13.8736 183.748 13.3195 183.748 12.7264C183.748 12.1333 183.855 11.5792 184.069 11.0639C184.293 10.5486 184.594 10.1014 184.973 9.72223C185.352 9.34307 185.795 9.04654 186.3 8.83265C186.816 8.60904 187.37 8.49723 187.963 8.49723C188.556 8.49723 189.105 8.60904 189.611 8.83265C190.126 9.04654 190.568 9.34307 190.938 9.72223C191.317 10.1014 191.614 10.5535 191.827 11.0785C192.041 11.5938 192.148 12.1528 192.148 12.7556C192.148 12.8917 192.139 13.0083 192.119 13.1056C192.109 13.1931 192.095 13.2952 192.075 13.4118H185.498C185.595 14.0049 185.873 14.4861 186.33 14.8556C186.796 15.225 187.36 15.4097 188.021 15.4097C188.945 15.4097 189.65 15.0306 190.136 14.2722H191.93ZM190.5 11.9389C190.355 11.3264 190.063 10.8549 189.625 10.5243C189.188 10.184 188.639 10.0139 187.977 10.0139C187.336 10.0139 186.796 10.184 186.359 10.5243C185.921 10.8549 185.625 11.3264 185.469 11.9389H190.5ZM193.062 12.741C193.062 12.1285 193.164 11.5646 193.368 11.0493C193.582 10.5243 193.869 10.0771 194.229 9.70765C194.598 9.32848 195.036 9.03196 195.541 8.81807C196.057 8.60418 196.611 8.49723 197.204 8.49723C197.826 8.49723 198.361 8.60904 198.808 8.83265C199.255 9.04654 199.654 9.39654 200.004 9.88265V8.68682H201.55V16.7368H200.004V15.5701C199.605 16.0563 199.192 16.4063 198.764 16.6201C198.337 16.8243 197.816 16.9264 197.204 16.9264C196.601 16.9264 196.047 16.8243 195.541 16.6201C195.036 16.4063 194.598 16.1146 194.229 15.7451C193.859 15.366 193.573 14.9236 193.368 14.4181C193.164 13.9028 193.062 13.3438 193.062 12.741ZM194.725 12.7556C194.725 13.1347 194.788 13.4896 194.914 13.8202C195.05 14.141 195.235 14.4229 195.468 14.666C195.712 14.8993 195.993 15.084 196.314 15.2201C196.645 15.3465 197 15.4097 197.379 15.4097C197.758 15.4097 198.103 15.3465 198.414 15.2201C198.735 15.084 199.012 14.8993 199.246 14.666C199.479 14.4229 199.659 14.1361 199.785 13.8056C199.912 13.475 199.975 13.1153 199.975 12.7264C199.975 12.3278 199.907 11.9632 199.771 11.6327C199.644 11.3021 199.459 11.0202 199.216 10.7868C198.983 10.5438 198.701 10.3542 198.371 10.2181C198.05 10.082 197.695 10.0139 197.306 10.0139C196.937 10.0139 196.591 10.0868 196.271 10.2327C195.959 10.3688 195.687 10.5583 195.454 10.8014C195.23 11.0445 195.05 11.3361 194.914 11.6764C194.788 12.007 194.725 12.3667 194.725 12.7556ZM203.21 8.68682H204.756V9.50348C205.048 9.13404 205.354 8.8764 205.675 8.73057C206.006 8.57501 206.414 8.49723 206.9 8.49723C207.483 8.49723 207.965 8.60418 208.344 8.81807C208.733 9.03196 209.073 9.37709 209.365 9.85348C209.695 9.38682 210.069 9.04654 210.487 8.83265C210.906 8.60904 211.411 8.49723 212.004 8.49723C213.064 8.49723 213.866 8.79862 214.41 9.4014C214.965 10.0042 215.242 10.884 215.242 12.041V16.7368H213.579V12.2452C213.579 10.7577 213.01 10.0139 211.873 10.0139C210.658 10.0139 210.05 10.8549 210.05 12.5368V16.7368H208.402V12.2306C208.402 10.7528 207.814 10.0139 206.637 10.0139C206.025 10.0139 205.573 10.2181 205.281 10.6264C204.999 11.0347 204.858 11.6715 204.858 12.5368V16.7368H203.21V8.68682Z"
        fill="black" fill-opacity="0.5" />
    <a href="https://huntteam.ru/">
        <rect fill="black" fill-opacity="0" y="-2.19792" width="71.0437" height="19.3958" />
    </a>
    <defs>
        <clipPath id="clip0_305_1807">
            <rect width="45" height="24.4737" fill="white" transform="translate(91)" />
        </clipPath>
        <clipPath id="clip1_305_1807">
            <rect width="45" height="24.417" fill="white" transform="translate(91.0894 0.000488281)" />
        </clipPath>
    </defs>
</svg>