<svg width="21" height="16" viewBox="0 0 21 16" fill="none" xmlns="http://www.w3.org/2000/svg">
<path d="M0.178449 15.2994L0.198914 3.37793L9.35598 8.9518C10.2588 9.50132 11.3954 9.48999 12.2871 8.92257L21.0001 3.37793L20.9796 15.3018C20.979 15.6879 20.6658 16.0004 20.2798 16.0004H0.878253C0.491292 16.0004 0.177785 15.6864 0.178449 15.2994Z" fill="#006FFF"/>
<path d="M1.21309 -0.000488281H19.9337C20.5107 -0.000488281 20.9784 0.467263 20.9784 1.04426C20.9784 1.39149 20.8059 1.71602 20.5181 1.91026L12.7015 7.1854C11.5536 7.9601 10.0542 7.97542 8.89069 7.22434L0.651306 1.90562C0.355768 1.71484 0.177246 1.38712 0.177246 1.03535C0.177246 0.463273 0.641009 -0.000488281 1.21309 -0.000488281Z" fill="#006FFF"/>
</svg>
