<svg width="19" height="16" viewBox="0 0 19 16" fill="none" xmlns="http://www.w3.org/2000/svg">
<path fill-rule="evenodd" clip-rule="evenodd" d="M1.24527 6.9567C6.10783 4.83816 9.35029 3.44149 10.9727 2.76669C15.6049 0.839997 16.5674 0.50531 17.1948 0.494258C17.3328 0.491828 17.6413 0.526024 17.8411 0.688186C18.0099 0.825112 18.0563 1.01008 18.0785 1.1399C18.1007 1.26972 18.1284 1.56546 18.1064 1.79654C17.8554 4.43403 16.7692 10.8345 16.2166 13.7886C15.9828 15.0386 15.5224 15.4577 15.0767 15.4987C14.1081 15.5878 13.3725 14.8585 12.4344 14.2436C10.9663 13.2812 10.137 12.6822 8.71195 11.7431C7.06512 10.6579 8.13269 10.0614 9.07122 9.08661C9.31684 8.83151 13.5847 4.94958 13.6673 4.59743C13.6776 4.55338 13.6872 4.38921 13.5897 4.30253C13.4921 4.21584 13.3482 4.24548 13.2443 4.26906C13.0971 4.30248 10.7518 5.85259 6.20861 8.9194C5.54292 9.37651 4.93996 9.59923 4.39973 9.58756C3.80417 9.5747 2.65855 9.25082 1.8069 8.97398C0.762311 8.63443 -0.0679047 8.45491 0.0043884 7.87824C0.0420431 7.57788 0.455672 7.2707 1.24527 6.9567Z" fill="#006FFF"/>
</svg>
